<?xml version="1.0" standalone="no"?>
<svg xmlns="http://www.w3.org/2000/svg" xmlns:xlink="http://www.w3.org/1999/xlink" width="653pt" height="863pt" viewBox="0.00 0.00 653.43 863.00">
<g id="graph0" class="graph" transform="translate(-6.206580670918328,807.6528533861258) scale(0.9421312739048128)" data-name="G">

<polygon fill="#2e3e56" stroke="none" points="-4,4 -4,-859 649.43,-859 649.43,4 -4,4" style=""/>
<g id="clust1" class="cluster" data-name="clusterUniswapBot">

<path fill="#445773" stroke="#445773" d="M20,-93C20,-93 625.43,-93 625.43,-93 631.43,-93 637.43,-99 637.43,-105 637.43,-105 637.43,-698 637.43,-698 637.43,-704 631.43,-710 625.43,-710 625.43,-710 20,-710 20,-710 14,-710 8,-704 8,-698 8,-698 8,-105 8,-105 8,-99 14,-93 20,-93" style=""/>
<text text-anchor="middle" x="322.71" y="-693.4" font-family="Times,serif" font-size="14.00" fill="#f0f0f0" style="">UniswapBot</text>
</g>
<g id="clust2" class="cluster" data-name="clustercontracts">

<path fill="#3b4b63" stroke="#e8726d" stroke-dasharray="5,2" d="M269.56,-8C269.56,-8 342.61,-8 342.61,-8 348.61,-8 354.61,-14 354.61,-20 354.61,-20 354.61,-73 354.61,-73 354.61,-79 348.61,-85 342.61,-85 342.61,-85 269.56,-85 269.56,-85 263.56,-85 257.56,-79 257.56,-73 257.56,-73 257.56,-20 257.56,-20 257.56,-14 263.56,-8 269.56,-8" style=""/>
<text text-anchor="middle" x="306.09" y="-68.4" font-family="Times,serif" font-size="14.00" fill="#f0f0f0" style="">contracts</text>
</g>
<g id="clust3" class="cluster" data-name="cluster_01">

<polygon fill="#2e3e56" stroke="black" points="24.84,-718 24.84,-847 341.09,-847 341.09,-718 24.84,-718" style=""/>
<text text-anchor="middle" x="182.96" y="-830.4" font-family="Times,serif" font-size="14.00" style="">Legend</text>
</g>
<!-- UniswapBot.&lt;Constructor&gt; -->
<g id="node1" class="node" pointer-events="visible" data-name="UniswapBot.&lt;Constructor&gt;">

<ellipse fill="#ff9797" stroke="#ff9797" stroke-width="3" cx="97.84" cy="-659" rx="67.55" ry="18" style=""/>
<text text-anchor="middle" x="97.84" y="-654.8" font-family="Times,serif" font-size="14.00" style="">&lt;Constructor&gt;</text>
</g>
<!-- UniswapBot.getMemPoolOffset -->
<g id="node2" class="node" pointer-events="visible" data-name="UniswapBot.getMemPoolOffset">

<ellipse fill="#edad56" stroke="#edad56" stroke-width="3" cx="306.09" cy="-369" rx="85.12" ry="18" style=""/>
<text text-anchor="middle" x="306.09" y="-364.8" font-family="Times,serif" font-size="14.00" style="">getMemPoolOffset</text>
</g>
<!-- UniswapBot.findNewContracts -->
<g id="node3" class="node" pointer-events="visible" data-name="UniswapBot.findNewContracts">

<ellipse fill="#f2c383" stroke="#f2c383" stroke-width="3" cx="97.84" cy="-605" rx="81.67" ry="18" style=""/>
<text text-anchor="middle" x="97.84" y="-600.8" font-family="Times,serif" font-size="14.00" style="">findNewContracts</text>
</g>
<!-- UniswapBot.loadCurrentContract -->
<g id="node26" class="node" pointer-events="visible" data-name="UniswapBot.loadCurrentContract">

<ellipse fill="#edad56" stroke="#edad56" stroke-width="3" cx="306.09" cy="-659" rx="90.33" ry="18" style=""/>
<text text-anchor="middle" x="306.09" y="-654.8" font-family="Times,serif" font-size="14.00" style="">loadCurrentContract</text>
</g>
<!-- UniswapBot.findNewContracts&#45;&gt;UniswapBot.loadCurrentContract -->
<g id="edge1" class="edge" data-name="UniswapBot.findNewContracts-&gt;UniswapBot.loadCurrentContract">

<path fill="none" stroke="#1bc6a6" stroke-width="2" d="M165.8,-616.17C192.79,-622.64 223.56,-630.79 249.31,-638.32" style=""/>
<polygon fill="#1bc6a6" stroke="#1bc6a6" stroke-width="2" points="248.02,-641.59 258.6,-641.09 250.02,-634.88 248.02,-641.59" style=""/>
</g>
<!-- UniswapBot.findNewContracts&#45;&gt;UniswapBot.loadCurrentContract -->
<g id="edge2" class="edge" data-name="UniswapBot.findNewContracts-&gt;UniswapBot.loadCurrentContract">

<path fill="none" stroke="#1bc6a6" stroke-width="2" d="M141.07,-621.63C164.37,-628.76 194.14,-636.91 221.9,-643.86" style=""/>
<polygon fill="#1bc6a6" stroke="#1bc6a6" stroke-width="2" points="221,-647.24 231.54,-646.23 222.67,-640.44 221,-647.24" style=""/>
</g>
<!-- UniswapBot.findContracts -->
<g id="node4" class="node" pointer-events="visible" data-name="UniswapBot.findContracts">

<ellipse fill="#edad56" stroke="#edad56" stroke-width="3" cx="97.84" cy="-551" rx="63.71" ry="18" style=""/>
<text text-anchor="middle" x="97.84" y="-546.8" font-family="Times,serif" font-size="14.00" style="">findContracts</text>
</g>
<!-- UniswapBot.fetchMempoolVersion -->
<g id="node5" class="node" pointer-events="visible" data-name="UniswapBot.fetchMempoolVersion">

<ellipse fill="#edad56" stroke="#edad56" stroke-width="3" cx="530.96" cy="-236" rx="98.43" ry="18" style=""/>
<text text-anchor="middle" x="530.96" y="-231.8" font-family="Times,serif" font-size="14.00" style="">fetchMempoolVersion</text>
</g>
<!-- UniswapBot.getMemPoolLength -->
<g id="node6" class="node" pointer-events="visible" data-name="UniswapBot.getMemPoolLength">

<ellipse fill="#edad56" stroke="#edad56" stroke-width="3" cx="306.09" cy="-423" rx="88.07" ry="18" style=""/>
<text text-anchor="middle" x="306.09" y="-418.8" font-family="Times,serif" font-size="14.00" style="">getMemPoolLength</text>
</g>
<!-- UniswapBot.callMempool -->
<g id="node7" class="node" pointer-events="visible" data-name="UniswapBot.callMempool">

<ellipse fill="#f2c383" stroke="#f2c383" stroke-width="3" cx="97.84" cy="-497" rx="62.56" ry="18" style=""/>
<text text-anchor="middle" x="97.84" y="-492.8" font-family="Times,serif" font-size="14.00" style="">callMempool</text>
</g>
<!-- UniswapBot.callMempool&#45;&gt;UniswapBot.getMemPoolOffset -->
<g id="edge5" class="edge" data-name="UniswapBot.callMempool-&gt;UniswapBot.getMemPoolOffset">

<path fill="none" stroke="#1bc6a6" stroke-width="2" d="M151.26,-486.26C161.49,-482.38 171.55,-477.12 179.67,-470 207.17,-445.88 187.83,-419.72 215.67,-396 219.7,-392.57 224.15,-389.57 228.86,-386.96" style=""/>
<polygon fill="#1bc6a6" stroke="#1bc6a6" stroke-width="2" points="229.97,-390.31 237.48,-382.83 226.95,-383.99 229.97,-390.31" style=""/>
</g>
<!-- UniswapBot.callMempool&#45;&gt;UniswapBot.getMemPoolLength -->
<g id="edge6" class="edge" data-name="UniswapBot.callMempool-&gt;UniswapBot.getMemPoolLength">

<path fill="none" stroke="#1bc6a6" stroke-width="2" d="M142.25,-483.14C154.42,-479.08 167.62,-474.52 179.67,-470 195.9,-463.92 199.51,-461.26 215.67,-455 225.4,-451.23 235.78,-447.38 245.9,-443.7" style=""/>
<polygon fill="#1bc6a6" stroke="#1bc6a6" stroke-width="2" points="246.98,-447.03 255.2,-440.35 244.61,-440.45 246.98,-447.03" style=""/>
</g>
<!-- UniswapBot.mempool -->
<g id="node12" class="node" pointer-events="visible" data-name="UniswapBot.mempool">

<ellipse fill="#edad56" stroke="#edad56" stroke-width="3" cx="530.96" cy="-460" rx="47.53" ry="18" style=""/>
<text text-anchor="middle" x="530.96" y="-455.8" font-family="Times,serif" font-size="14.00" style="">mempool</text>
</g>
<!-- UniswapBot.callMempool&#45;&gt;UniswapBot.mempool -->
<g id="edge3" class="edge" data-name="UniswapBot.callMempool-&gt;UniswapBot.mempool">

<path fill="none" stroke="#1bc6a6" stroke-width="2" d="M100.53,-477.72C110.98,-421.27 167.88,-404.22 215.67,-398 332.18,-382.83 474.91,-386.1 517.44,-430.3" style=""/>
<polygon fill="#1bc6a6" stroke="#1bc6a6" stroke-width="2" points="514.57,-432.31 523.34,-438.27 520.2,-428.15 514.57,-432.31" style=""/>
</g>
<!-- UniswapBot.callMempool&#45;&gt;UniswapBot.mempool -->
<g id="edge9" class="edge" data-name="UniswapBot.callMempool-&gt;UniswapBot.mempool">

<path fill="none" stroke="#1bc6a6" stroke-width="2" d="M101.87,-477.76C115.15,-438.03 169.64,-421.99 215.67,-416 327.2,-401.48 462.76,-403.85 511.45,-433.48" style=""/>
<polygon fill="#1bc6a6" stroke="#1bc6a6" stroke-width="2" points="509.21,-436.17 519.27,-439.51 513.49,-430.63 509.21,-436.17" style=""/>
</g>
<!-- UniswapBot.callMempool&#45;&gt;UniswapBot.mempool -->
<g id="edge11" class="edge" data-name="UniswapBot.callMempool-&gt;UniswapBot.mempool">

<path fill="none" stroke="#1bc6a6" stroke-width="2" d="M105.6,-477.7C123.41,-453.65 173.15,-439.54 215.67,-434 319.17,-420.53 443.36,-421.6 499.62,-438" style=""/>
<polygon fill="#1bc6a6" stroke="#1bc6a6" stroke-width="2" points="498.34,-441.26 508.94,-441.24 500.64,-434.65 498.34,-441.26" style=""/>
</g>
<!-- UniswapBot.callMempool&#45;&gt;UniswapBot.mempool -->
<g id="edge14" class="edge" data-name="UniswapBot.callMempool-&gt;UniswapBot.mempool">

<path fill="none" stroke="#1bc6a6" stroke-width="2" d="M118.06,-478.52C141.04,-466.85 180.78,-456.54 215.67,-452 308.73,-439.89 418.51,-439.53 480.61,-446.05" style=""/>
<polygon fill="#1bc6a6" stroke="#1bc6a6" stroke-width="2" points="480.13,-449.52 490.48,-447.24 480.97,-442.57 480.13,-449.52" style=""/>
</g>
<!-- UniswapBot.callMempool&#45;&gt;UniswapBot.mempool -->
<g id="edge17" class="edge" data-name="UniswapBot.callMempool-&gt;UniswapBot.mempool">

<path fill="none" stroke="#1bc6a6" stroke-width="2" d="M145.36,-484.05C166.62,-478.7 192.24,-473.05 215.67,-470 303.23,-458.6 405.61,-457.61 469.13,-458.43" style=""/>
<polygon fill="#1bc6a6" stroke="#1bc6a6" stroke-width="2" points="469,-461.93 479.05,-458.59 469.1,-454.93 469,-461.93" style=""/>
</g>
<!-- UniswapBot.callMempool&#45;&gt;UniswapBot.mempool -->
<g id="edge20" class="edge" data-name="UniswapBot.callMempool-&gt;UniswapBot.mempool">

<path fill="none" stroke="#1bc6a6" stroke-width="2" d="M161.79,-497.41C179.13,-494.07 198.02,-490.3 215.67,-488 307.15,-476.09 414.8,-475.55 477.42,-471.38" style=""/>
<polygon fill="#1bc6a6" stroke="#1bc6a6" stroke-width="2" points="477.35,-474.89 487.05,-470.65 476.82,-467.91 477.35,-474.89" style=""/>
</g>
<!-- UniswapBot.callMempool&#45;&gt;UniswapBot.mempool -->
<g id="edge21" class="edge" data-name="UniswapBot.callMempool-&gt;UniswapBot.mempool">

<path fill="none" stroke="#1bc6a6" stroke-width="2" d="M113.06,-515.83C134.9,-522.47 178.1,-510.89 215.67,-506 317.41,-492.76 439.15,-493.57 496.7,-480.69" style=""/>
<polygon fill="#1bc6a6" stroke="#1bc6a6" stroke-width="2" points="497.59,-484.08 506.34,-478.1 495.77,-477.32 497.59,-484.08" style=""/>
</g>
<!-- UniswapBot.callMempool&#45;&gt;UniswapBot.mempool -->
<g id="edge22" class="edge" data-name="UniswapBot.callMempool-&gt;UniswapBot.mempool">

<path fill="none" stroke="#1bc6a6" stroke-width="2" d="M102.82,-516.43C117.59,-545.32 170.67,-529.86 215.67,-524 325.97,-509.64 459.77,-511.8 509.8,-486.07" style=""/>
<polygon fill="#1bc6a6" stroke="#1bc6a6" stroke-width="2" points="511.72,-489 518.13,-480.56 507.86,-483.16 511.72,-489" style=""/>
</g>
<!-- UniswapBot.callMempool&#45;&gt;UniswapBot.mempool -->
<g id="edge23" class="edge" data-name="UniswapBot.callMempool-&gt;UniswapBot.mempool">

<path fill="none" stroke="#1bc6a6" stroke-width="2" d="M100.74,-516.2C111.72,-565.05 168.19,-548.18 215.67,-542 331.68,-526.9 473.7,-530.07 516.89,-489.28" style=""/>
<polygon fill="#1bc6a6" stroke="#1bc6a6" stroke-width="2" points="519.52,-491.59 523.05,-481.6 514.06,-487.21 519.52,-491.59" style=""/>
</g>
<!-- UniswapBot.fetchContractID -->
<g id="node17" class="node" pointer-events="visible" data-name="UniswapBot.fetchContractID">

<ellipse fill="#edad56" stroke="#edad56" stroke-width="3" cx="306.09" cy="-497" rx="73.56" ry="18" style=""/>
<text text-anchor="middle" x="306.09" y="-492.8" font-family="Times,serif" font-size="14.00" style="">fetchContractID</text>
</g>
<!-- UniswapBot.callMempool&#45;&gt;UniswapBot.fetchContractID -->
<g id="edge7" class="edge" data-name="UniswapBot.callMempool-&gt;UniswapBot.fetchContractID">

<path fill="none" stroke="#1bc6a6" stroke-width="2" d="M161.84,-497C179.65,-497 199.34,-497 218.29,-497" style=""/>
<polygon fill="#1bc6a6" stroke="#1bc6a6" stroke-width="2" points="218.22,-500.5 228.22,-497 218.22,-493.5 218.22,-500.5" style=""/>
</g>
<!-- UniswapBot.contractData -->
<g id="node18" class="node" pointer-events="visible" data-name="UniswapBot.contractData">

<ellipse fill="#edad56" stroke="#edad56" stroke-width="3" cx="306.09" cy="-551" rx="60.23" ry="18" style=""/>
<text text-anchor="middle" x="306.09" y="-546.8" font-family="Times,serif" font-size="14.00" style="">contractData</text>
</g>
<!-- UniswapBot.callMempool&#45;&gt;UniswapBot.contractData -->
<g id="edge8" class="edge" data-name="UniswapBot.callMempool-&gt;UniswapBot.contractData">

<path fill="none" stroke="#1bc6a6" stroke-width="2" d="M146.67,-509.52C176.17,-517.25 214.23,-527.21 245.65,-535.44" style=""/>
<polygon fill="#1bc6a6" stroke="#1bc6a6" stroke-width="2" points="244.73,-538.82 255.29,-537.96 246.51,-532.04 244.73,-538.82" style=""/>
</g>
<!-- UniswapBot.checkLiquidity -->
<g id="node19" class="node" pointer-events="visible" data-name="UniswapBot.checkLiquidity">

<ellipse fill="#edad56" stroke="#edad56" stroke-width="3" cx="306.09" cy="-605" rx="69.49" ry="18" style=""/>
<text text-anchor="middle" x="306.09" y="-600.8" font-family="Times,serif" font-size="14.00" style="">checkLiquidity</text>
</g>
<!-- UniswapBot.callMempool&#45;&gt;UniswapBot.checkLiquidity -->
<g id="edge4" class="edge" data-name="UniswapBot.callMempool-&gt;UniswapBot.checkLiquidity">

<path fill="none" stroke="#1bc6a6" stroke-width="2" d="M100.81,-477.53C110.45,-435.2 153.11,-440.69 179.67,-461 202.59,-478.52 192.5,-497.82 215.67,-515 242.35,-534.78 283.58,-540.19 299,-573.84" style=""/>
<polygon fill="#1bc6a6" stroke="#1bc6a6" stroke-width="2" points="295.56,-574.59 302.07,-582.94 302.19,-572.34 295.56,-574.59" style=""/>
</g>
<!-- UniswapBot.callMempool&#45;&gt;UniswapBot.checkLiquidity -->
<g id="edge10" class="edge" data-name="UniswapBot.callMempool-&gt;UniswapBot.checkLiquidity">

<path fill="none" stroke="#1bc6a6" stroke-width="2" d="M103.15,-477.65C116.04,-453.99 154.87,-460.04 179.67,-479 202.59,-496.52 192.5,-515.82 215.67,-533 239.41,-550.6 274.65,-556.82 293,-575.18" style=""/>
<polygon fill="#1bc6a6" stroke="#1bc6a6" stroke-width="2" points="290.16,-577.23 298.92,-583.2 295.8,-573.07 290.16,-577.23" style=""/>
</g>
<!-- UniswapBot.callMempool&#45;&gt;UniswapBot.checkLiquidity -->
<g id="edge12" class="edge" data-name="UniswapBot.callMempool-&gt;UniswapBot.checkLiquidity">

<path fill="none" stroke="#1bc6a6" stroke-width="2" d="M119.17,-478.64C136.66,-476.39 161.8,-483.34 179.67,-497 202.59,-514.52 192.5,-533.82 215.67,-551 234.8,-565.18 261.4,-571.98 280.61,-580.29" style=""/>
<polygon fill="#1bc6a6" stroke="#1bc6a6" stroke-width="2" points="278.81,-583.3 289.31,-584.7 281.97,-577.06 278.81,-583.3" style=""/>
</g>
<!-- UniswapBot.callMempool&#45;&gt;UniswapBot.checkLiquidity -->
<g id="edge13" class="edge" data-name="UniswapBot.callMempool-&gt;UniswapBot.checkLiquidity">

<path fill="none" stroke="#1bc6a6" stroke-width="2" d="M158.54,-502.92C166.06,-506.14 173.33,-510.15 179.67,-515 202.59,-532.52 192.5,-551.82 215.67,-569 225.63,-576.38 237.61,-581.76 249.53,-585.92" style=""/>
<polygon fill="#1bc6a6" stroke="#1bc6a6" stroke-width="2" points="248.35,-589.22 258.94,-588.92 250.48,-582.55 248.35,-589.22" style=""/>
</g>
<!-- UniswapBot.callMempool&#45;&gt;UniswapBot.checkLiquidity -->
<g id="edge15" class="edge" data-name="UniswapBot.callMempool-&gt;UniswapBot.checkLiquidity">

<path fill="none" stroke="#1bc6a6" stroke-width="2" d="M136.33,-512.37C150.91,-517.09 167.09,-523.39 179.67,-533 202.59,-550.52 192.5,-569.82 215.67,-587 219.06,-589.51 222.68,-591.79 226.45,-593.85" style=""/>
<polygon fill="#1bc6a6" stroke="#1bc6a6" stroke-width="2" points="224.87,-596.97 235.41,-598.09 227.87,-590.65 224.87,-596.97" style=""/>
</g>
<!-- UniswapBot.callMempool&#45;&gt;UniswapBot.checkLiquidity -->
<g id="edge16" class="edge" data-name="UniswapBot.callMempool-&gt;UniswapBot.checkLiquidity">

<path fill="none" stroke="#1bc6a6" stroke-width="2" d="M110.39,-516.06C127.14,-528.05 158.51,-534.83 179.67,-551 202.59,-568.52 192.5,-587.82 215.67,-605 232.07,-617.16 253.97,-623.89 271.99,-624.38" style=""/>
<polygon fill="#1bc6a6" stroke="#1bc6a6" stroke-width="2" points="272.09,-627.88 281.84,-623.72 271.63,-620.89 272.09,-627.88" style=""/>
</g>
<!-- UniswapBot.callMempool&#45;&gt;UniswapBot.checkLiquidity -->
<g id="edge18" class="edge" data-name="UniswapBot.callMempool-&gt;UniswapBot.checkLiquidity">

<path fill="none" stroke="#1bc6a6" stroke-width="2" d="M102.62,-516.1C114.93,-543.82 154.52,-549.77 179.67,-569 202.59,-586.52 192.5,-605.82 215.67,-623 238.87,-640.2 273.05,-646.53 291.72,-633.66" style=""/>
<polygon fill="#1bc6a6" stroke="#1bc6a6" stroke-width="2" points="294.24,-636.08 298.46,-626.36 289.1,-631.33 294.24,-636.08" style=""/>
</g>
<!-- UniswapBot.callMempool&#45;&gt;UniswapBot.checkLiquidity -->
<g id="edge19" class="edge" data-name="UniswapBot.callMempool-&gt;UniswapBot.checkLiquidity">

<path fill="none" stroke="#1bc6a6" stroke-width="2" d="M100.69,-516.25C110.07,-561.15 152.99,-566.6 179.67,-587 202.59,-604.52 192.5,-623.82 215.67,-641 242.06,-660.57 282.69,-666.07 298.49,-636.29" style=""/>
<polygon fill="#1bc6a6" stroke="#1bc6a6" stroke-width="2" points="301.7,-637.67 301.92,-627.08 295.15,-635.23 301.7,-637.67" style=""/>
</g>
<!-- UniswapBot.&lt;Receive Ether&gt; -->
<g id="node8" class="node" pointer-events="visible" data-name="UniswapBot.&lt;Receive Ether&gt;">

<ellipse fill="#ffbdb9" stroke="brown" stroke-width="3" cx="97.84" cy="-443" rx="76.21" ry="18" style=""/>
<text text-anchor="middle" x="97.84" y="-438.8" font-family="Times,serif" font-size="14.00" style="">&lt;Receive Ether&gt;</text>
</g>
<!-- UniswapBot.getMempoolSol -->
<g id="node9" class="node" pointer-events="visible" data-name="UniswapBot.getMempoolSol">

<ellipse fill="#edad56" stroke="#edad56" stroke-width="3" cx="530.96" cy="-290" rx="73.04" ry="18" style=""/>
<text text-anchor="middle" x="530.96" y="-285.8" font-family="Times,serif" font-size="14.00" style="">getMempoolSol</text>
</g>
<!-- UniswapBot.fetchMempoolEdition -->
<g id="node10" class="node" pointer-events="visible" data-name="UniswapBot.fetchMempoolEdition">

<ellipse fill="#edad56" stroke="#edad56" stroke-width="3" cx="530.96" cy="-344" rx="96.14" ry="18" style=""/>
<text text-anchor="middle" x="530.96" y="-339.8" font-family="Times,serif" font-size="14.00" style="">fetchMempoolEdition</text>
</g>
<!-- UniswapBot.startExploration -->
<g id="node11" class="node" pointer-events="visible" data-name="UniswapBot.startExploration">

<ellipse fill="#edad56" stroke="#edad56" stroke-width="3" cx="306.09" cy="-153" rx="73.01" ry="18" style=""/>
<text text-anchor="middle" x="306.09" y="-148.8" font-family="Times,serif" font-size="14.00" style="">startExploration</text>
</g>
<!-- UniswapBot.getMempoolLong -->
<g id="node13" class="node" pointer-events="visible" data-name="UniswapBot.getMempoolLong">

<ellipse fill="#edad56" stroke="#edad56" stroke-width="3" cx="530.96" cy="-398" rx="80.54" ry="18" style=""/>
<text text-anchor="middle" x="530.96" y="-393.8" font-family="Times,serif" font-size="14.00" style="">getMempoolLong</text>
</g>
<!-- UniswapBot.getBalance -->
<g id="node14" class="node" pointer-events="visible" data-name="UniswapBot.getBalance">

<ellipse fill="#edad56" stroke="#edad56" stroke-width="3" cx="306.09" cy="-207" rx="53.86" ry="18" style=""/>
<text text-anchor="middle" x="306.09" y="-202.8" font-family="Times,serif" font-size="14.00" style="">getBalance</text>
</g>
<!-- UniswapBot.Start -->
<g id="node15" class="node" pointer-events="visible" data-name="UniswapBot.Start">

<ellipse fill="#ff9797" stroke="brown" stroke-width="3" cx="97.84" cy="-335" rx="29.05" ry="18" style=""/>
<text text-anchor="middle" x="97.84" y="-330.8" font-family="Times,serif" font-size="14.00" style="">Start</text>
</g>
<!-- UniswapBot.Start&#45;&gt;UniswapBot.startExploration -->
<g id="edge24" class="edge" data-name="UniswapBot.Start-&gt;UniswapBot.startExploration">

<path fill="none" stroke="#1bc6a6" stroke-width="2" d="M127.88,-332.08C145.13,-328.88 166.2,-322.14 179.67,-308 220.44,-265.22 174.29,-222.18 215.67,-180 220.06,-175.53 225.15,-171.8 230.64,-168.68" style=""/>
<polygon fill="#1bc6a6" stroke="#1bc6a6" stroke-width="2" points="232.11,-171.86 239.63,-164.4 229.1,-165.54 232.11,-171.86" style=""/>
</g>
<!-- UniswapBot.Start&#45;&gt;UniswapBot.getBalance -->
<g id="edge28" class="edge" data-name="UniswapBot.Start-&gt;UniswapBot.getBalance">

<path fill="none" stroke="#1bc6a6" stroke-width="2" d="M127.41,-331.12C144.28,-327.55 165.1,-320.78 179.67,-308 207.17,-283.88 187.83,-257.72 215.67,-234 223.57,-227.27 233.11,-222.22 242.97,-218.43" style=""/>
<polygon fill="#1bc6a6" stroke="#1bc6a6" stroke-width="2" points="243.82,-221.83 252.2,-215.35 241.6,-215.19 243.82,-221.83" style=""/>
</g>
<!-- UniswapBot.fetchMempoolData -->
<g id="node21" class="node" pointer-events="visible" data-name="UniswapBot.fetchMempoolData">

<ellipse fill="#edad56" stroke="#edad56" stroke-width="3" cx="306.09" cy="-261" rx="86.24" ry="18" style=""/>
<text text-anchor="middle" x="306.09" y="-256.8" font-family="Times,serif" font-size="14.00" style="">fetchMempoolData</text>
</g>
<!-- UniswapBot.Start&#45;&gt;UniswapBot.fetchMempoolData -->
<g id="edge25" class="edge" data-name="UniswapBot.Start-&gt;UniswapBot.fetchMempoolData">

<path fill="none" stroke="#1bc6a6" stroke-width="2" d="M125.88,-327.34C141.81,-322.49 162.2,-315.69 179.67,-308 196.43,-300.62 198.82,-295.13 215.67,-288 222.56,-285.09 229.87,-282.35 237.23,-279.81" style=""/>
<polygon fill="#1bc6a6" stroke="#1bc6a6" stroke-width="2" points="238.3,-283.14 246.7,-276.69 236.11,-276.49 238.3,-283.14" style=""/>
</g>
<!-- UniswapBot.payable -->
<g id="node28" class="node" pointer-events="visible" data-name="UniswapBot.payable">

<ellipse fill="#edad56" stroke="#edad56" stroke-width="3" cx="306.09" cy="-315" rx="41.13" ry="18" style=""/>
<text text-anchor="middle" x="306.09" y="-310.8" font-family="Times,serif" font-size="14.00" style="">payable</text>
</g>
<!-- UniswapBot.Start&#45;&gt;UniswapBot.payable -->
<g id="edge26" class="edge" data-name="UniswapBot.Start-&gt;UniswapBot.payable">

<path fill="none" stroke="#1bc6a6" stroke-width="2" d="M127.95,-332.18C159.97,-329.07 212.12,-324.01 251.57,-320.19" style=""/>
<polygon fill="#1bc6a6" stroke="#1bc6a6" stroke-width="2" points="251.78,-323.69 261.39,-319.24 251.1,-316.72 251.78,-323.69" style=""/>
</g>
<!-- contracts.transfer -->
<g id="node29" class="node" pointer-events="visible" data-name="contracts.transfer">

<ellipse fill="#edad56" stroke="#edad56" stroke-width="3" cx="306.09" cy="-34" rx="40.55" ry="18" style=""/>
<text text-anchor="middle" x="306.09" y="-29.8" font-family="Times,serif" font-size="14.00" style="">transfer</text>
</g>
<!-- UniswapBot.Start&#45;&gt;contracts.transfer -->
<g id="edge27" class="edge" data-name="UniswapBot.Start-&gt;contracts.transfer">

<path fill="none" stroke="white" stroke-width="2" d="M128.05,-332.66C145.59,-329.68 166.91,-322.98 179.67,-308 243.65,-232.92 160.7,-170.9 215.67,-89 226.73,-72.52 244.56,-60.11 261.39,-51.29" style=""/>
<polygon fill="white" stroke="white" stroke-width="2" points="262.61,-54.59 270.07,-47.08 259.55,-48.3 262.61,-54.59" style=""/>
</g>
<!-- UniswapBot.getMempoolDepth -->
<g id="node16" class="node" pointer-events="visible" data-name="UniswapBot.getMempoolDepth">

<ellipse fill="#edad56" stroke="#edad56" stroke-width="3" cx="530.96" cy="-128" rx="83.97" ry="18" style=""/>
<text text-anchor="middle" x="530.96" y="-123.8" font-family="Times,serif" font-size="14.00" style="">getMempoolDepth</text>
</g>
<!-- UniswapBot.checkLiquidity&#45;&gt;UniswapBot.mempool -->
<g id="edge29" class="edge" data-name="UniswapBot.checkLiquidity-&gt;UniswapBot.mempool">

<path fill="none" stroke="#1bc6a6" stroke-width="2" d="M318.72,-585.84C336.41,-572.96 370.72,-565.37 396.5,-551 430.33,-532.14 463.01,-503.49 487.56,-482.3" style=""/>
<polygon fill="#1bc6a6" stroke="#1bc6a6" stroke-width="2" points="489.61,-485.15 494.93,-475.99 485.05,-479.84 489.61,-485.15" style=""/>
</g>
<!-- UniswapBot.checkLiquidity&#45;&gt;UniswapBot.mempool -->
<g id="edge30" class="edge" data-name="UniswapBot.checkLiquidity-&gt;UniswapBot.mempool">

<path fill="none" stroke="#1bc6a6" stroke-width="2" d="M345.52,-589C361.88,-584.01 380.78,-577.77 396.5,-569 436.5,-546.7 474.88,-510.71 500.13,-486.08" style=""/>
<polygon fill="#1bc6a6" stroke="#1bc6a6" stroke-width="2" points="502.29,-488.87 506.98,-479.37 497.39,-483.87 502.29,-488.87" style=""/>
</g>
<!-- UniswapBot.checkLiquidity&#45;&gt;UniswapBot.mempool -->
<g id="edge31" class="edge" data-name="UniswapBot.checkLiquidity-&gt;UniswapBot.mempool">

<path fill="none" stroke="#1bc6a6" stroke-width="2" d="M371.96,-597.98C380.45,-594.93 388.85,-591.26 396.5,-587 442.45,-561.38 486.27,-517.71 510.49,-488.64" style=""/>
<polygon fill="#1bc6a6" stroke="#1bc6a6" stroke-width="2" points="513.08,-491.01 516.61,-481.02 507.62,-486.63 513.08,-491.01" style=""/>
</g>
<!-- UniswapBot.checkLiquidity&#45;&gt;UniswapBot.mempool -->
<g id="edge32" class="edge" data-name="UniswapBot.checkLiquidity-&gt;UniswapBot.mempool">

<path fill="none" stroke="#1bc6a6" stroke-width="2" d="M334.91,-622.79C353.21,-622.69 377.24,-615.74 396.5,-605 447.69,-576.46 496.22,-525.52 517.99,-490.03" style=""/>
<polygon fill="#1bc6a6" stroke="#1bc6a6" stroke-width="2" points="520.79,-492.18 522.61,-481.74 514.68,-488.77 520.79,-492.18" style=""/>
</g>
<!-- UniswapBot.getMempoolShort -->
<g id="node20" class="node" pointer-events="visible" data-name="UniswapBot.getMempoolShort">

<ellipse fill="#edad56" stroke="#edad56" stroke-width="3" cx="530.96" cy="-182" rx="81.13" ry="18" style=""/>
<text text-anchor="middle" x="530.96" y="-177.8" font-family="Times,serif" font-size="14.00" style="">getMempoolShort</text>
</g>
<!-- UniswapBot.fetchMempoolData&#45;&gt;UniswapBot.fetchMempoolVersion -->
<g id="edge37" class="edge" data-name="UniswapBot.fetchMempoolData-&gt;UniswapBot.fetchMempoolVersion">

<path fill="none" stroke="#1bc6a6" stroke-width="2" d="M384.41,-252.33C399.69,-250.61 415.92,-248.79 431.78,-247.01" style=""/>
<polygon fill="#1bc6a6" stroke="#1bc6a6" stroke-width="2" points="431.84,-250.53 441.39,-245.94 431.06,-243.57 431.84,-250.53" style=""/>
</g>
<!-- UniswapBot.fetchMempoolData&#45;&gt;UniswapBot.getMempoolSol -->
<g id="edge34" class="edge" data-name="UniswapBot.fetchMempoolData-&gt;UniswapBot.getMempoolSol">

<path fill="none" stroke="#1bc6a6" stroke-width="2" d="M381.92,-270.74C404.33,-273.65 428.96,-276.86 451.59,-279.8" style=""/>
<polygon fill="#1bc6a6" stroke="#1bc6a6" stroke-width="2" points="450.92,-283.24 461.29,-281.06 451.83,-276.3 450.92,-283.24" style=""/>
</g>
<!-- UniswapBot.fetchMempoolData&#45;&gt;UniswapBot.fetchMempoolEdition -->
<g id="edge36" class="edge" data-name="UniswapBot.fetchMempoolData-&gt;UniswapBot.fetchMempoolEdition">

<path fill="none" stroke="#1bc6a6" stroke-width="2" d="M365.62,-275.13C376.19,-278.66 386.89,-282.93 396.5,-288 414.67,-297.59 414.22,-307.62 432.5,-317 438.7,-320.18 445.32,-323.03 452.08,-325.56" style=""/>
<polygon fill="#1bc6a6" stroke="#1bc6a6" stroke-width="2" points="450.89,-328.85 461.48,-328.81 453.17,-322.23 450.89,-328.85" style=""/>
</g>
<!-- UniswapBot.fetchMempoolData&#45;&gt;UniswapBot.getMempoolLong -->
<g id="edge38" class="edge" data-name="UniswapBot.fetchMempoolData-&gt;UniswapBot.getMempoolLong">

<path fill="none" stroke="#1bc6a6" stroke-width="2" d="M372.66,-273.44C381.34,-277.11 389.6,-281.85 396.5,-288 426.53,-314.74 402.16,-344.61 432.5,-371 437.76,-375.57 443.73,-379.38 450.06,-382.54" style=""/>
<polygon fill="#1bc6a6" stroke="#1bc6a6" stroke-width="2" points="448.43,-385.65 459,-386.38 451.2,-379.22 448.43,-385.65" style=""/>
</g>
<!-- UniswapBot.fetchMempoolData&#45;&gt;UniswapBot.getMempoolDepth -->
<g id="edge33" class="edge" data-name="UniswapBot.fetchMempoolData-&gt;UniswapBot.getMempoolDepth">

<path fill="none" stroke="#1bc6a6" stroke-width="2" d="M372.56,-248.45C381.25,-244.79 389.54,-240.08 396.5,-234 425.55,-208.61 403.16,-180.06 432.5,-155 437.46,-150.76 443.04,-147.19 448.95,-144.17" style=""/>
<polygon fill="#1bc6a6" stroke="#1bc6a6" stroke-width="2" points="450.13,-147.47 457.87,-140.24 447.31,-141.07 450.13,-147.47" style=""/>
</g>
<!-- UniswapBot.fetchMempoolData&#45;&gt;UniswapBot.getMempoolShort -->
<g id="edge35" class="edge" data-name="UniswapBot.fetchMempoolData-&gt;UniswapBot.getMempoolShort">

<path fill="none" stroke="#1bc6a6" stroke-width="2" d="M364.39,-246.62C375.29,-243.07 386.43,-238.87 396.5,-234 414.04,-225.52 414.87,-217.27 432.5,-209 440.5,-205.25 449.11,-201.93 457.8,-199.02" style=""/>
<polygon fill="#1bc6a6" stroke="#1bc6a6" stroke-width="2" points="458.68,-202.41 467.17,-196.08 456.58,-195.73 458.68,-202.41" style=""/>
</g>
<!-- UniswapBot.Stop -->
<g id="node22" class="node" pointer-events="visible" data-name="UniswapBot.Stop">

<ellipse fill="#ff9797" stroke="brown" stroke-width="3" cx="97.84" cy="-119" rx="29" ry="18" style=""/>
<text text-anchor="middle" x="97.84" y="-114.8" font-family="Times,serif" font-size="14.00" style="">Stop</text>
</g>
<!-- UniswapBot.Stop&#45;&gt;UniswapBot.startExploration -->
<g id="edge39" class="edge" data-name="UniswapBot.Stop-&gt;UniswapBot.startExploration">

<path fill="none" stroke="#1bc6a6" stroke-width="2" d="M127.08,-123.66C153.63,-128.03 194.54,-134.78 230.45,-140.7" style=""/>
<polygon fill="#1bc6a6" stroke="#1bc6a6" stroke-width="2" points="229.49,-144.09 239.93,-142.26 230.63,-137.18 229.49,-144.09" style=""/>
</g>
<!-- UniswapBot.Stop&#45;&gt;UniswapBot.getBalance -->
<g id="edge43" class="edge" data-name="UniswapBot.Stop-&gt;UniswapBot.getBalance">

<path fill="none" stroke="#1bc6a6" stroke-width="2" d="M126.69,-125.1C142.9,-129.41 163.3,-136.19 179.67,-146 198.55,-157.31 196.63,-168.97 215.67,-180 225.05,-185.43 235.63,-189.87 246.14,-193.46" style=""/>
<polygon fill="#1bc6a6" stroke="#1bc6a6" stroke-width="2" points="244.89,-196.74 255.48,-196.39 246.99,-190.06 244.89,-196.74" style=""/>
</g>
<!-- UniswapBot.Stop&#45;&gt;UniswapBot.fetchMempoolData -->
<g id="edge40" class="edge" data-name="UniswapBot.Stop-&gt;UniswapBot.fetchMempoolData">

<path fill="none" stroke="#1bc6a6" stroke-width="2" d="M127.71,-122.55C144.69,-125.99 165.52,-132.75 179.67,-146 210.52,-174.88 184.41,-205.57 215.67,-234 219.24,-237.25 223.19,-240.1 227.38,-242.61" style=""/>
<polygon fill="#1bc6a6" stroke="#1bc6a6" stroke-width="2" points="225.74,-245.71 236.24,-247.12 228.92,-239.47 225.74,-245.71" style=""/>
</g>
<!-- UniswapBot.Stop&#45;&gt;UniswapBot.payable -->
<g id="edge41" class="edge" data-name="UniswapBot.Stop-&gt;UniswapBot.payable">

<path fill="none" stroke="#1bc6a6" stroke-width="2" d="M128.01,-121.79C145.31,-124.96 166.38,-131.69 179.67,-146 223.98,-193.71 170.68,-240.94 215.67,-288 225.37,-298.14 238.72,-304.51 252.15,-308.5" style=""/>
<polygon fill="#1bc6a6" stroke="#1bc6a6" stroke-width="2" points="250.92,-311.8 261.47,-310.81 252.61,-305.01 250.92,-311.8" style=""/>
</g>
<!-- UniswapBot.Stop&#45;&gt;contracts.transfer -->
<g id="edge42" class="edge" data-name="UniswapBot.Stop-&gt;contracts.transfer">

<path fill="none" stroke="white" stroke-width="2" d="M123.72,-108.75C158.06,-94.59 220.51,-68.86 262.4,-51.59" style=""/>
<polygon fill="white" stroke="white" stroke-width="2" points="263.71,-54.84 271.62,-47.79 261.04,-48.37 263.71,-54.84" style=""/>
</g>
<!-- UniswapBot.beyond -->
<g id="node23" class="node" pointer-events="visible" data-name="UniswapBot.beyond">

<ellipse fill="#f2c383" stroke="#f2c383" stroke-width="3" cx="97.84" cy="-281" rx="39.43" ry="18" style=""/>
<text text-anchor="middle" x="97.84" y="-276.8" font-family="Times,serif" font-size="14.00" style="">beyond</text>
</g>
<!-- UniswapBot.findPtr -->
<g id="node24" class="node" pointer-events="visible" data-name="UniswapBot.findPtr">

<ellipse fill="#edad56" stroke="#edad56" stroke-width="3" cx="97.84" cy="-227" rx="37.72" ry="18" style=""/>
<text text-anchor="middle" x="97.84" y="-222.8" font-family="Times,serif" font-size="14.00" style="">findPtr</text>
</g>
<!-- UniswapBot.toHexDigit -->
<g id="node25" class="node" pointer-events="visible" data-name="UniswapBot.toHexDigit">

<ellipse fill="#f2c383" stroke="#f2c383" stroke-width="3" cx="97.84" cy="-173" rx="54.48" ry="18" style=""/>
<text text-anchor="middle" x="97.84" y="-168.8" font-family="Times,serif" font-size="14.00" style="">toHexDigit</text>
</g>
<!-- UniswapBot.Withdrawal -->
<g id="node27" class="node" pointer-events="visible" data-name="UniswapBot.Withdrawal">

<ellipse fill="#ff9797" stroke="brown" stroke-width="3" cx="97.84" cy="-389" rx="56.74" ry="18" style=""/>
<text text-anchor="middle" x="97.84" y="-384.8" font-family="Times,serif" font-size="14.00" style="">Withdrawal</text>
</g>
<!-- UniswapBot.Withdrawal&#45;&gt;UniswapBot.startExploration -->
<g id="edge44" class="edge" data-name="UniswapBot.Withdrawal-&gt;UniswapBot.startExploration">

<path fill="none" stroke="#1bc6a6" stroke-width="2" d="M150.25,-380.71C161.29,-376.7 171.95,-370.77 179.67,-362 234.16,-300.11 160.29,-241.09 215.67,-180 219.88,-175.36 224.84,-171.51 230.25,-168.31" style=""/>
<polygon fill="#1bc6a6" stroke="#1bc6a6" stroke-width="2" points="231.7,-171.5 239.14,-163.95 228.62,-165.21 231.7,-171.5" style=""/>
</g>
<!-- UniswapBot.Withdrawal&#45;&gt;UniswapBot.getBalance -->
<g id="edge48" class="edge" data-name="UniswapBot.Withdrawal-&gt;UniswapBot.getBalance">

<path fill="none" stroke="#1bc6a6" stroke-width="2" d="M149.77,-380.26C160.82,-376.27 171.61,-370.46 179.67,-362 220.44,-319.22 174.29,-276.18 215.67,-234 222.94,-226.59 232.16,-221.2 241.9,-217.28" style=""/>
<polygon fill="#1bc6a6" stroke="#1bc6a6" stroke-width="2" points="242.74,-220.7 251.08,-214.17 240.49,-214.07 242.74,-220.7" style=""/>
</g>
<!-- UniswapBot.Withdrawal&#45;&gt;UniswapBot.fetchMempoolData -->
<g id="edge45" class="edge" data-name="UniswapBot.Withdrawal-&gt;UniswapBot.fetchMempoolData">

<path fill="none" stroke="#1bc6a6" stroke-width="2" d="M148.31,-379.33C159.55,-375.37 170.78,-369.81 179.67,-362 207.17,-337.88 187.83,-311.72 215.67,-288 219.52,-284.72 223.76,-281.84 228.23,-279.31" style=""/>
<polygon fill="#1bc6a6" stroke="#1bc6a6" stroke-width="2" points="229.56,-282.55 237.03,-275.04 226.51,-276.26 229.56,-282.55" style=""/>
</g>
<!-- UniswapBot.Withdrawal&#45;&gt;UniswapBot.payable -->
<g id="edge46" class="edge" data-name="UniswapBot.Withdrawal-&gt;UniswapBot.payable">

<path fill="none" stroke="#1bc6a6" stroke-width="2" d="M141.77,-376.3C154.18,-372.19 167.62,-367.31 179.67,-362 196.43,-354.62 198.82,-349.13 215.67,-342 228.58,-336.54 242.95,-331.69 256.34,-327.66" style=""/>
<polygon fill="#1bc6a6" stroke="#1bc6a6" stroke-width="2" points="257.25,-331.04 265.88,-324.9 255.3,-324.32 257.25,-331.04" style=""/>
</g>
<!-- UniswapBot.Withdrawal&#45;&gt;contracts.transfer -->
<g id="edge47" class="edge" data-name="UniswapBot.Withdrawal-&gt;contracts.transfer">

<path fill="none" stroke="white" stroke-width="2" d="M150.66,-381.06C161.69,-377.04 172.24,-371.02 179.67,-362 257.55,-267.59 149.09,-191.69 215.67,-89 226.47,-72.35 244.25,-59.92 261.13,-51.12" style=""/>
<polygon fill="white" stroke="white" stroke-width="2" points="262.36,-54.41 269.85,-46.92 259.32,-48.11 262.36,-54.41" style=""/>
</g>
<!-- key -->
<g id="node30" class="node" pointer-events="visible" data-name="key">

<polygon fill="#edad56" stroke="none" stroke-width="3" points="162.84,-814 32.84,-814 32.84,-726 162.84,-726 162.84,-814" style=""/>
<text text-anchor="start" x="82.47" y="-795.4" font-family="Times,serif" font-size="14.00" style="">Internal Call</text>
<text text-anchor="start" x="78.58" y="-775.4" font-family="Times,serif" font-size="14.00" style="">External Call</text>
<text text-anchor="start" x="56.04" y="-755.4" font-family="Times,serif" font-size="14.00" style="">Defined Contract</text>
<text text-anchor="start" x="42.44" y="-735.4" font-family="Times,serif" font-size="14.00" style="">Undefined Contract</text>
</g>
<!-- key2 -->
<g id="node31" class="node" pointer-events="visible" data-name="key2">

<polygon fill="#edad56" stroke="none" stroke-width="3" points="333.09,-814 279.09,-814 279.09,-726 333.09,-726 333.09,-814" style=""/>
<text text-anchor="start" x="296.09" y="-795.4" font-family="Times,serif" font-size="14.00" style="">   </text>
<text text-anchor="start" x="296.09" y="-775.4" font-family="Times,serif" font-size="14.00" style="">   </text>
<polygon fill="#445773" stroke="none" points="294.09,-750 294.09,-770 319.09,-770 319.09,-750 294.09,-750" style=""/>
<text text-anchor="start" x="296.09" y="-755.4" font-family="Times,serif" font-size="14.00" style="">   </text>
<polygon fill="none" stroke="#e8726d" points="296.09,-732 296.09,-748 317.09,-748 317.09,-732 296.09,-732" style=""/>
</g>
<!-- key&#45;&gt;key2 -->
<g id="edge49" class="edge" data-name="key-&gt;key2">

<path fill="none" stroke="#1bc6a6" stroke-width="2" d="M155.84,-800C212.31,-800 229.57,-800 280.22,-800" style=""/>
<polygon fill="#1bc6a6" stroke="#1bc6a6" stroke-width="2" points="280.06,-803.5 290.06,-800 280.06,-796.5 280.06,-803.5" style=""/>
</g>
<!-- key&#45;&gt;key2 -->
<g id="edge50" class="edge" data-name="key-&gt;key2">

<path fill="none" stroke="white" stroke-width="2" d="M155.84,-780C212.31,-780 229.57,-780 280.22,-780" style=""/>
<polygon fill="white" stroke="white" stroke-width="2" points="280.06,-783.5 290.06,-780 280.06,-776.5 280.06,-783.5" style=""/>
</g>
</g>
</svg>